<svg viewBox="0 0 1481 400" xmlns="http://www.w3.org/2000/svg"><g><g><g><g><g><line x1="41.171875" y1="377" x2="36.171875" y2="377" style="visibility: inherit;" fill="rgb(0, 0, 0)" stroke="rgb(204, 204, 204)" stroke-width="1px"></line><line x1="41.171875" y1="329.87499999999994" x2="36.171875" y2="329.87499999999994" style="visibility: inherit;" fill="rgb(0, 0, 0)" stroke="rgb(204, 204, 204)" stroke-width="1px"></line><line x1="41.171875" y1="282.75" x2="36.171875" y2="282.75" style="visibility: inherit;" fill="rgb(0, 0, 0)" stroke="rgb(204, 204, 204)" stroke-width="1px"></line><line x1="41.171875" y1="235.62499999999991" x2="36.171875" y2="235.62499999999991" style="visibility: inherit;" fill="rgb(0, 0, 0)" stroke="rgb(204, 204, 204)" stroke-width="1px"></line><line x1="41.171875" y1="188.5" x2="36.171875" y2="188.5" style="visibility: inherit;" fill="rgb(0, 0, 0)" stroke="rgb(204, 204, 204)" stroke-width="1px"></line><line x1="41.171875" y1="141.37499999999997" x2="36.171875" y2="141.37499999999997" style="visibility: inherit;" fill="rgb(0, 0, 0)" stroke="rgb(204, 204, 204)" stroke-width="1px"></line><line x1="41.171875" y1="94.24999999999987" x2="36.171875" y2="94.24999999999987" style="visibility: inherit;" fill="rgb(0, 0, 0)" stroke="rgb(204, 204, 204)" stroke-width="1px"></line><line x1="41.171875" y1="47.12499999999983" x2="36.171875" y2="47.12499999999983" style="visibility: inherit;" fill="rgb(0, 0, 0)" stroke="rgb(204, 204, 204)" stroke-width="1px"></line><line x1="41.171875" y1="0" x2="36.171875" y2="0" style="visibility: inherit;" fill="rgb(0, 0, 0)" stroke="rgb(204, 204, 204)" stroke-width="1px"></line></g><g transform="translate(31.171875, 0)"><text x="0" y="377" dx="0em" dy="0.3em" style="text-anchor: end; visibility: hidden; font-family: Roboto, sans-serif; font-size: 12px; font-weight: 200;" fill="rgb(33, 33, 33)" stroke="none" stroke-width="1px">1.5</text><text x="0" y="329.87499999999994" dx="0em" dy="0.3em" style="text-anchor: end; visibility: inherit; font-family: Roboto, sans-serif; font-size: 12px; font-weight: 200;" fill="rgb(33, 33, 33)" stroke="none" stroke-width="1px">1.6</text><text x="0" y="282.75" dx="0em" dy="0.3em" style="text-anchor: end; visibility: inherit; font-family: Roboto, sans-serif; font-size: 12px; font-weight: 200;" fill="rgb(33, 33, 33)" stroke="none" stroke-width="1px">1.7</text><text x="0" y="235.62499999999991" dx="0em" dy="0.3em" style="text-anchor: end; visibility: inherit; font-family: Roboto, sans-serif; font-size: 12px; font-weight: 200;" fill="rgb(33, 33, 33)" stroke="none" stroke-width="1px">1.8</text><text x="0" y="188.5" dx="0em" dy="0.3em" style="text-anchor: end; visibility: inherit; font-family: Roboto, sans-serif; font-size: 12px; font-weight: 200;" fill="rgb(33, 33, 33)" stroke="none" stroke-width="1px">1.9</text><text x="0" y="141.37499999999997" dx="0em" dy="0.3em" style="text-anchor: end; visibility: inherit; font-family: Roboto, sans-serif; font-size: 12px; font-weight: 200;" fill="rgb(33, 33, 33)" stroke="none" stroke-width="1px">2</text><text x="0" y="94.24999999999987" dx="0em" dy="0.3em" style="text-anchor: end; visibility: inherit; font-family: Roboto, sans-serif; font-size: 12px; font-weight: 200;" fill="rgb(33, 33, 33)" stroke="none" stroke-width="1px">2.1</text><text x="0" y="47.12499999999983" dx="0em" dy="0.3em" style="text-anchor: end; visibility: inherit; font-family: Roboto, sans-serif; font-size: 12px; font-weight: 200;" fill="rgb(33, 33, 33)" stroke="none" stroke-width="1px">2.2</text><text x="0" y="0" dx="0em" dy="0.3em" style="text-anchor: end; visibility: hidden; font-family: Roboto, sans-serif; font-size: 12px; font-weight: 200;" fill="rgb(33, 33, 33)" stroke="none" stroke-width="1px">2.3</text></g><line x1="41.171875" y1="0" x2="41.171875" y2="377" fill="rgb(0, 0, 0)" stroke="rgb(204, 204, 204)" stroke-width="1px"></line></g></g><g transform="translate(41, 0)" clip-path="url(#clip_0)"><clipPath id="clip_0"><rect width="1439" height="377"></rect></clipPath><g><g><g><line x1="0" y1="0" x2="0" y2="377" fill="rgb(0, 0, 0)" stroke="rgb(66, 66, 66)" stroke-width="1px" opacity="0.25"></line><line x1="179.978515625" y1="0" x2="179.978515625" y2="377" fill="rgb(0, 0, 0)" stroke="rgb(66, 66, 66)" stroke-width="1px" opacity="0.25"></line><line x1="359.95703125" y1="0" x2="359.95703125" y2="377" fill="rgb(0, 0, 0)" stroke="rgb(66, 66, 66)" stroke-width="1px" opacity="0.25"></line><line x1="539.935546875" y1="0" x2="539.935546875" y2="377" fill="rgb(0, 0, 0)" stroke="rgb(66, 66, 66)" stroke-width="1px" opacity="0.25"></line><line x1="719.9140625" y1="0" x2="719.9140625" y2="377" fill="rgb(0, 0, 0)" stroke="rgb(66, 66, 66)" stroke-width="1px" opacity="0.25"></line><line x1="899.892578125" y1="0" x2="899.892578125" y2="377" fill="rgb(0, 0, 0)" stroke="rgb(66, 66, 66)" stroke-width="1px" opacity="0.25"></line><line x1="1079.87109375" y1="0" x2="1079.87109375" y2="377" fill="rgb(0, 0, 0)" stroke="rgb(66, 66, 66)" stroke-width="1px" opacity="0.25"></line><line x1="1259.849609375" y1="0" x2="1259.849609375" y2="377" fill="rgb(0, 0, 0)" stroke="rgb(66, 66, 66)" stroke-width="1px" opacity="0.25"></line><line x1="1439.828125" y1="0" x2="1439.828125" y2="377" fill="rgb(0, 0, 0)" stroke="rgb(66, 66, 66)" stroke-width="1px" opacity="0.25"></line></g><g><line x1="0" y1="377" x2="1439.828125" y2="377" fill="rgb(0, 0, 0)" stroke="rgb(66, 66, 66)" stroke-width="1px" opacity="0.25"></line><line x1="0" y1="329.87499999999994" x2="1439.828125" y2="329.87499999999994" fill="rgb(0, 0, 0)" stroke="rgb(66, 66, 66)" stroke-width="1px" opacity="0.25"></line><line x1="0" y1="282.75" x2="1439.828125" y2="282.75" fill="rgb(0, 0, 0)" stroke="rgb(66, 66, 66)" stroke-width="1px" opacity="0.25"></line><line x1="0" y1="235.62499999999991" x2="1439.828125" y2="235.62499999999991" fill="rgb(0, 0, 0)" stroke="rgb(66, 66, 66)" stroke-width="1px" opacity="0.25"></line><line x1="0" y1="188.5" x2="1439.828125" y2="188.5" fill="rgb(0, 0, 0)" stroke="rgb(66, 66, 66)" stroke-width="1px" opacity="0.25"></line><line x1="0" y1="141.37499999999997" x2="1439.828125" y2="141.37499999999997" fill="rgb(0, 0, 0)" stroke="rgb(66, 66, 66)" stroke-width="1px" opacity="0.25"></line><line x1="0" y1="94.24999999999987" x2="1439.828125" y2="94.24999999999987" fill="rgb(0, 0, 0)" stroke="rgb(66, 66, 66)" stroke-width="1px" opacity="0.25"></line><line x1="0" y1="47.12499999999983" x2="1439.828125" y2="47.12499999999983" fill="rgb(0, 0, 0)" stroke="rgb(66, 66, 66)" stroke-width="1px" opacity="0.25"></line><line x1="0" y1="0" x2="1439.828125" y2="0" fill="rgb(0, 0, 0)" stroke="rgb(66, 66, 66)" stroke-width="1px" opacity="0.25"></line></g></g></g><g><g><line x1="0" y1="1083.8750000000002" x2="1439.828125" y2="1083.8750000000002" fill="rgb(0, 0, 0)" stroke="rgb(153, 153, 153)" stroke-width="1.5px"></line></g></g><g><g><line x1="179.978515625" y1="0" x2="179.978515625" y2="377" fill="rgb(0, 0, 0)" stroke="rgb(153, 153, 153)" stroke-width="1.5px"></line></g></g><g><g><g><g><g><path stroke="rgb(255, 112, 67)" stroke-width="2px" d="M208.775078125,-11.792762504577786L210.57486328124997,6.819942790770997L212.37464843749999,-7.219440390248074L215.97421875,-7.7940553597938935L217.77400390625,10.008103641947711L219.5737890625,21.76363424306291L221.37357421875,18.826279711751745L223.173359375,24.05723448781367L224.97314453125,16.507812757830767L226.7729296875,9.565373439233133L228.57271484375,22.64769334954573L230.3725,27.236000419177067L232.17228515625,3.3162237489753426L233.9720703125,0.31206136596671763L235.77185546875,23.466974430934204L237.57164062500001,12.119782029706856L239.37142578125003,24.783535929721047L241.1712109375,37.490109338158454L242.97099609375002,14.709013197874558L244.77078125000003,24.282420241666404L246.57056640625,23.127343077563932L248.3703515625,26.411655139663136L250.17013671874997,33.96182447669478L251.96992187499998,21.602354736481374L253.76970703125,28.022576797004692L255.56949218749997,22.845567288289157L257.36927734375,23.584725560336015L259.1690625,50.60672664013055L260.96884765625,45.23666865392276L262.7686328125,43.522659389649725L264.56841796875,27.58387895075932L266.368203125,47.445467232008404L268.16798828125,37.77916157133645L269.9677734375,25.55156261843845L271.76755859375,39.02539598425254L273.56734375,39.927845212700774L275.36712890625,43.44761460595902L277.1669140625,58.038179621554264L278.96669921875,67.39572884170207L280.766484375,64.09418946223126L282.56626953125,44.639314971660944L284.3660546875,36.77409293788296L286.16583984375,33.61952215753523L287.965625,52.76336502029107L289.76541015625,73.09032713767107L291.5651953125,75.20176627276064L293.36498046875,80.46481875203679L295.164765625,76.47850570453772L296.96455078125,56.028387459358704L298.7643359375,55.38878643050275L300.56412109375,37.98346013745358L302.36390625,52.08299218964993L304.16369140625,69.9865330895925L305.9634765625,68.90970137364509L307.76326171875,85.71872254995606L309.563046875,67.5291172789817L311.36283203125,57.57670634551547L313.1626171875,69.2865725848896L314.96240234375,62.79702420793912L316.7621875,34.71875431396318L318.56197265625,50.87815898810483L320.3617578125,47.69925013872781L322.16154296875,61.34315123374927L323.961328125,79.06760167011997L325.76111328125,88.00576006728046L327.5608984375,79.11807229136011L329.36068359375,76.78259013899904L331.16046875,63.99589912181347L332.96025390625,61.73385586789387L334.7600390625,58.17115100891077L336.55982421875,60.55755973262007L338.359609375,55.71232455016619L340.15939453125,50.56204322005173L341.9591796875,52.617946928887775L343.75896484375,47.15972980627371L345.55875,52.895066671186335L347.35853515625,48.6454958990895L349.1583203125,55.21913934205067L350.95810546875,62.19816217693129L352.757890625,78.31765090151092L354.55767578125,86.02893342210918L356.3574609375,78.83674667855547L358.15724609375,73.1454034720686L359.95703125,78.13769941775959L361.75681640625,67.82497080116842L363.5566015625,72.58918082683898L365.35638671874995,67.13484814148914L367.156171875,61.883007159124325L368.95595703124997,63.89680573361543L370.7557421875,82.27743063579453L372.55552734375,74.55006672269369L374.3553125,65.1257178862467L376.15509765624995,76.75657310960139L377.9548828125,69.14519206808471L379.75466796874997,68.98927631453557L381.554453125,74.81462031886508L383.35423828125,93.93648563793627L385.15402343750003,86.6349903760632L386.95380859375,93.20594041456467L388.75359375000005,91.7951209360939L390.55337890625,85.44441472378848L392.3531640625,79.12695192627575L394.15294921875,67.09902805884151L395.95273437500003,61.46566683530487L397.75251953125,42.760596290109504L399.55230468750005,56.664616402910966L401.35208984375,56.84494985158847L403.151875,47.05689812311896L404.95166015625,47.63080318337299L406.7514453125,56.21259240845219L408.55123046875,60.15524552189924L410.35101562499995,95.20674576713816L412.15080078125,99.23493336650236L413.95058593749997,106.02505254156893L415.75037109375,89.94847843293839L417.55015625,74.23281548764996L419.34994140625,88.34708706347159L421.14972656249995,85.46795453910823L422.94951171875,110.41322430541999L424.74929687499997,112.56237142426293L426.54908203125,108.53617644991L428.3488671875,111.70004156044433L430.14865234375003,100.06406184918468L431.9484375,107.37080803446044L433.74822265625005,102.51835107166823L435.5480078125,76.9114410123781L437.34779296875,94.79872977981309L439.147578125,100.70546629577471L440.94736328125003,108.77353984445077L442.7471484375,104.73602131801684L444.54693359375005,93.77445890782961L446.34671875,81.52369619774025L448.14650390625,76.49174636225234L449.9462890625,102.5769972420951L451.74607421875,100.22639920814161L453.545859375,93.66996788086475L455.34564453124995,87.51184446276427L457.1454296875,71.11207443869827L458.94521484374997,78.97235588071779L460.745,102.95323064230695L462.54478515625,106.18254636706588L464.3445703125,102.78557695735516L466.14435546874995,96.43072560899881L467.944140625,98.61212076826945L469.74392578124997,98.99731189062626L471.5437109375,105.0530768516686L473.34349609375,98.60179769295603L475.14328125000003,101.32854637681325L476.94306640625,107.45087602841188L478.74285156250005,98.85293237630924L480.54263671875,99.40569770493728L482.342421875,108.93615532015923L484.14220703125,102.94859240111812L485.94199218750003,105.91586457286546L487.74177734375,109.92053743955047L489.54156250000005,104.44403698895313L491.34134765625,89.11298786910726L493.1411328125,84.94731213636601L494.94091796875,91.00578864805335L496.740703125,107.96781139607694L498.54048828125,102.2356366219251L500.34027343749995,112.55682312858873L502.14005859375,135.0925004566477L503.93984374999997,109.46243172197136L505.73962890625,92.82147808854931L507.5394140625,87.3608926056929L509.33919921875,85.95066391939558L511.13898437499995,104.78395647713336L512.93876953125,95.87670454328534L514.7385546875,113.77441762057107L516.53833984375,94.16454295019594L518.338125,105.01864151776013L520.13791015625,88.64717843902203L521.9376953125,99.61586267216269L523.73748046875,107.6862231401399L525.537265625,96.31744589256023L527.33705078125,98.18601092008817L529.1368359375,99.17520051186115L530.93662109375,94.54727419009701L532.73640625,92.26060984010029L534.53619140625,104.21554807111336L536.3359765625,105.01723236611309L538.13576171875,106.66695710880064L539.935546875,118.11850276507447L541.73533203125,109.75866445849836L543.5351171875,116.44859896272717L545.33490234375,119.99129887920795L547.1346875,120.15650811494706L548.93447265625,118.48375422180483L550.7342578125,104.73749965680109L552.53404296875,115.24548577220705L554.333828125,114.7077380117862L556.13361328125,117.21260912997053L557.9333984375,119.63917777408678L559.73318359375,158.49350037258583L561.53296875,194.77491122532908L563.33275390625,212.41559684305804L565.1325390625,219.75780950802215L566.93232421875,243.10738477002172L568.732109375,236.08052212530725L570.53189453125,227.79280302843057L572.3316796875,213.94183138561607L574.13146484375,211.15429358215545L575.93125,219.45343520958082L577.73103515625,223.64120116662292L579.5308203125,220.57427864570204L581.33060546875,234.77546298085912L583.130390625,229.3660265301422L584.93017578125,236.22395592300632L586.7299609375,225.93732819180804L588.52974609375,221.51840033066932L590.32953125,236.58604019840166L592.12931640625,233.73227782225374L593.9291015625,227.74105694994782L595.72888671875,230.51762554112346L597.528671875,230.01581651606128L599.32845703125,230.2990881838677L601.1282421875,227.9620121144222L602.92802734375,229.51921320098438L604.7278125,236.88137188039892L606.52759765625,233.83406431962652L608.3273828125,231.25168949061393L610.12716796875,244.57491074617963L611.926953125,236.41438688407098L613.72673828125,223.48798831444833L615.5265234375,218.20148198689125L617.32630859375,220.55264584353625L619.12609375,225.2809329040709L620.92587890625,225.15845841216222L622.7256640625,219.1849333885143L624.52544921875,216.24171237008755L626.325234375,224.59822415028205L628.12501953125,232.3453853530537L629.9248046875,232.30003969686328L631.72458984375,231.66962209234885L633.524375,235.77767444187555L635.32416015625,226.51781523546066L637.1239453125,234.345395936492L638.92373046875,242.94389018650227L640.723515625,231.53382871887305L642.52330078125,224.9516906877828L644.3230859375,251.65251549127538L646.12287109375,235.21331706072584L647.92265625,239.9585453058821L649.72244140625,230.15732319268824L651.5222265625,233.30575513311172L653.32201171875,227.56055584828817L655.121796875,223.45368915367584L656.92158203125,206.92747266035357L658.7213671875,209.9239782031838L660.52115234375,233.83293785670188L662.3209375,235.56766084443797L664.12072265625,226.3163945651726L665.9205078125,237.07089396576137L667.72029296875,215.02238303577926L669.520078125,235.72328906152262L671.31986328125,236.36258267696866L673.1196484375,238.00909370980364L674.91943359375,229.93015133620312L676.71921875,231.19018817711486L678.51900390625,235.3957709239042L680.3187890625,247.7399598578284L682.11857421875,245.49526714203773L683.918359375,235.55286330531843L685.71814453125,246.59011108011495L687.5179296875,255.9457138796478L689.31771484375,237.16717275499275L691.1175,246.44656443905217L692.91728515625,242.55147971100442L694.7170703125,250.0918275438954L696.51685546875,252.76874429721892L698.316640625,249.26655056917224L700.11642578125,248.9559893658373L701.9162109375,240.53218398395853L703.71599609375,234.51657099666392L705.51578125,240.7468956180941L707.31556640625,241.6764462154228L709.1153515625,225.49536287552817L710.91513671875,237.16260956386745L712.714921875,244.954676596284L714.51470703125,248.0276481199027L716.3144921875,239.80554602669244L718.11427734375,243.2982172973547L719.9140625,216.6664393667933L721.71384765625,223.10001157072523L723.5136328125,230.03269791810115L725.3134179687501,237.6418703687691L727.113203125,235.00666992023602L728.91298828125,237.32749548050768L730.7127734374999,228.78605523403294L732.5125585937501,240.87124309954532L734.31234375,236.41649585972718L736.11212890625,224.3940465450912L737.9119140624999,215.14477620128565L739.71169921875,218.92596183779108L741.511484375,214.61603263951702L743.31126953125,222.00171695910302L745.1110546875,221.17398121811397L746.9108398437501,245.89864538226985L748.710625,251.70427867242364L750.51041015625,239.50446281712456L752.3101953124999,245.39843631911995L754.1099804687501,232.17715359406898L755.909765625,221.22840031789084L757.70955078125,204.34819515232044L759.5093359374999,205.7374232034909L761.30912109375,218.7669114363806L763.10890625,227.79100232676362L764.90869140625,219.63345182750044L766.7084765625,223.3910691190566L768.50826171875,222.9312384872916L770.3080468750001,229.53558579381004L772.10783203125,226.58024223623084L773.9076171875,238.47328430400736L775.7074023437499,224.15782281152283L777.5071875000001,213.79664401049538L779.30697265625,216.45827691456756L781.1067578125,227.4425638836687L782.9065429687499,251.2997474623957L784.706328125,245.6141920777106L786.50611328125,244.35175589871073L788.3058984375,258.44810968727865L790.10568359375,245.0022050982177L791.9054687500001,233.59822047027697L793.70525390625,228.414635302262L795.5050390625,228.2639309296826L797.3048242187499,227.73995377599113L799.1046093750001,227.48212686764555L800.90439453125,240.40932184211815L802.7041796875,233.82079037280323L804.5039648437499,220.44268047959466L806.30375,217.03406688064842L808.10353515625,238.19323423201152L809.9033203125,236.1668910425562L811.70310546875,240.02174512396203L813.502890625,239.77103664785588L815.3026757812501,227.76397152131761L817.1024609375,228.04318834177232L818.90224609375,233.30020908612957L820.7020312499999,234.77678526698907L822.5018164062501,239.03687910592177L824.3016015625,239.74562099191922L826.10138671875,253.6863117731414L827.9011718749999,264.52008152704246L829.70095703125,257.71225966632846L831.5007421875,252.25151291859447L833.30052734375,254.19650494678197L835.1003125,252.95070426239604L836.9000976562501,239.12133273228426L838.6998828125,227.54380485263115L840.49966796875,242.35017996338985L842.2994531249999,224.41045319621549L844.0992382812501,221.60131134739385L845.8990234375,227.7951304087095L847.69880859375,217.995976195875L849.4985937499999,226.40479520925473L851.29837890625,232.2606362937009L853.0981640625,249.2895865939924L854.89794921875,219.8277064146322L856.697734375,236.36332039724124L858.49751953125,215.78538371736002L860.2973046875001,232.41107059487211L862.09708984375,234.84648991208385L863.896875,211.89698557007972L865.6966601562499,222.99044655530852L867.4964453125001,232.0216127918315L869.29623046875,222.03986868179757L871.096015625,239.44366653512066L872.8958007812499,241.08299510330048L874.6955859375,244.98835518747615L876.49537109375,241.03566016429681L878.29515625,221.22779854341752L880.09494140625,220.86043272140273L881.8947265625001,230.80016387535727L883.69451171875,220.55300903936381L885.494296875,236.57230937850562L887.2940820312499,220.45363940222313L889.0938671875001,199.5101319874718L890.89365234375,230.3932743028041L892.6934375,232.22207472057556L894.4932226562499,240.31269695360305L896.2930078125,241.22741820811527L898.09279296875,212.69070577859458L899.892578125,229.8568329229329L901.69236328125,237.23474626626816L903.4921484375,241.6992005281822L905.2919335937501,240.15546902258254L907.09171875,233.91352440261275L908.89150390625,249.9985674818959L910.6912890624999,240.76188257936283L912.4910742187501,243.4950240826823L914.290859375,238.5939746604095L916.09064453125,253.08958961401754L917.8904296874999,252.98400844236838L919.69021484375,256.6152661031522L921.49,243.4312606326364L923.28978515625,236.5575996203197L925.0895703125,239.84146886843283L926.8893554687501,242.3961250291934L928.689140625,243.495364195506L930.48892578125,239.19736646795286L932.2887109374999,243.55537290086747L934.0884960937501,240.10048075145713L935.88828125,247.8483847476615L937.68806640625,273.04362103328543L939.4878515624999,291.9307816802587L941.28763671875,315.5344195115045L943.087421875,319.97000609323226L944.88720703125,329.85089261820815L946.6869921875,326.0528284161741L948.48677734375,337.76069633063406L950.2865625000001,339.4320275777383L952.08634765625,355.0247205015304L953.8861328125,350.58213862873805L955.6859179687499,340.678179330216L957.4857031250001,325.6312485018886L959.28548828125,338.11095859286286L961.0852734375,330.5753359417742L962.8850585937499,343.5278907430545L964.68484375,332.8641430027709L966.48462890625,327.8796317748681L968.2844140625,332.67398603990404L970.08419921875,335.1358971967383L971.8839843750001,330.76954047525425L973.68376953125,322.9848232784539L975.4835546875,330.1706330012483L977.2833398437499,330.410539795828L979.0831250000001,336.96346877209663L980.88291015625,337.6530274521847L982.6826953125,335.5408704621517L984.4824804687499,342.6618250097588L986.282265625,331.08154622827493L988.08205078125,324.54808036157203L989.8818359375,327.31973771851483L991.68162109375,321.7631975567413L993.48140625,335.865518066649L995.2811914062501,345.9480097254301L997.0809765625,332.7327988243213L998.88076171875,342.18337997770976L1000.6805468749999,337.9763300000231L1002.4803320312501,326.76224616638433L1004.2801171875,319.61909446401364L1006.07990234375,328.0758056717096L1007.8796874999999,324.5542441890823L1009.67947265625,322.81830244578043L1011.4792578125,300.64588642905426L1013.27904296875,310.6221848415748L1015.078828125,318.2290632419238L1016.8786132812501,315.68672953203014L1018.6783984375,319.6843969592732L1020.47818359375,325.09898105676666L1022.2779687499999,322.7492962921601L1024.07775390625,317.852218535241L1025.8775390625,329.74893424910096L1027.67732421875,327.23575760127187L1029.477109375,323.2396656704014L1031.27689453125,321.78450961304094L1033.0766796875,332.3722077452682L1034.87646484375,325.171674719068L1036.67625,315.44140601790696L1038.47603515625,314.25920339010213L1040.2758203125,312.7581627940063L1042.07560546875,323.6576415643051L1043.875390625,325.39059015184375L1045.67517578125,329.3709529046401L1047.4749609375,328.04571106458815L1049.27474609375,333.98003156438534L1051.07453125,328.20987602147505L1052.87431640625,322.4480830912176L1054.6741015625,325.852399890684L1056.47388671875,322.0703396827357L1058.273671875,316.7097074049936L1060.07345703125,322.824075881137L1061.8732421875,341.70465448110906L1063.67302734375,325.43658391600616L1065.4728125,334.86505743244754L1067.27259765625,341.351544346687L1069.0723828125,347.1095815695983L1070.87216796875,346.24775667176607L1072.671953125,342.54499994031175L1074.47173828125,320.6439610738253L1076.2715234375,335.6275307070431L1078.07130859375,330.10316835231885L1079.87109375,326.5435052179534L1081.67087890625,332.2870115079425L1083.4706640625,330.0780982040133L1085.27044921875,333.2202000059347L1087.070234375,329.4127602242029L1088.87001953125,332.31205264703004L1090.6698046875,334.9187371610139L1092.46958984375,345.66269315949285L1094.269375,331.8830086330842L1096.06916015625,327.5548500025434L1097.8689453125,315.55181694055574L1099.66873046875,316.62514954820256L1101.468515625,327.7308823944031L1103.26830078125,331.4160222459376L1105.0680859375,330.66765942862867L1106.86787109375,338.0413865249827L1108.66765625,338.0547323823854L1110.46744140625,340.28704946046383L1112.2672265625,341.0420826244671L1114.06701171875,337.04650586654657L1115.866796875,322.41550215369415L1117.66658203125,321.78010294607844L1119.4663671875,318.9483612642978L1121.26615234375,320.00142351784075L1123.0659375,310.6804496884213L1124.86572265625,323.35351280211603L1126.6655078125,324.0771049847556L1128.46529296875,334.841066622159L1130.265078125,326.4456505795843L1132.06486328125,325.27264052751815L1133.8646484375,307.26453931405035L1135.66443359375,314.15982204242874L1137.46421875,333.5843392346163L1139.26400390625,332.00635587774866L1141.0637890625,338.8634575224111L1142.86357421875,331.6865824232215L1144.663359375,334.93930330095975L1146.46314453125,336.212335575928L1148.2629296875,345.3455505545793L1150.06271484375,332.88029036378015L1151.8625,335.54243176850764L1153.66228515625,333.0115557174271L1155.4620703125,334.50903619887737L1157.26185546875,329.2058790538448L1159.061640625,331.33966801248425L1160.86142578125,344.1561456661369L1162.6612109375,330.3758923972218L1164.46099609375,324.3320275285583L1166.26078125,340.8752073489869L1168.06056640625,336.9086744453457L1169.8603515625,325.27339690124677L1171.66013671875,330.48818177697467L1173.459921875,312.8443662209357L1175.25970703125,319.3550101329711L1177.0594921875,321.56490708648124L1178.85927734375,313.9182394341168L1180.6590625,320.1312834856235L1182.45884765625,334.64132390244737L1184.2586328125,326.8912864316937L1186.05841796875,335.492810749378L1187.858203125,323.9337872406042L1189.65798828125,329.7598284924147L1191.4577734375,329.61740626359693L1193.25755859375,325.40379203238916L1195.05734375,304.17642155217425L1196.85712890625,316.5670617039639L1198.6569140625,327.3378876695417L1200.45669921875,331.2744910508027L1202.256484375,335.52145128188306L1204.05626953125,317.93781246386624L1205.8560546875,320.84653790976205L1207.65583984375,331.31933328023905L1209.455625,330.2703571588478L1211.25541015625,341.5730240387131L1213.0551953125,344.64116467490254L1214.85498046875,334.9835510340599L1216.654765625,337.8599835686247L1218.45455078125,326.6547320516324L1220.2543359375,326.09554279037803L1222.05412109375,323.8373247753888L1223.85390625,318.1845998627728L1225.65369140625,311.13606480734256L1227.4534765625,332.6183408258957L1229.25326171875,335.5548952554823L1231.053046875,315.77129801125295L1232.85283203125,326.4080217958151L1234.6526171875,312.22470905069457L1236.45240234375,321.7164699654815L1238.2521875,336.9873425496243L1240.05197265625,326.77206390694516L1241.8517578125,353.15914941785184L1243.65154296875,341.6965881047097L1245.451328125,339.4184505258469L1247.25111328125,326.9677713581603L1249.0508984375,320.34561978987944L1250.85068359375,326.9094746423488L1252.65046875,311.941223675771L1254.45025390625,314.25143165276256L1256.2500390625,318.1069117241252L1258.04982421875,324.73684699852157L1259.849609375,338.7618625135355L1261.64939453125,326.4418691260298L1263.4491796875,326.0809213318038L1265.24896484375,337.4005569337373L1267.04875,331.3743235539534L1268.84853515625,330.6426402134382L1270.6483203125,347.62104415909545L1272.44810546875,342.1437213541037L1274.247890625,336.7084306192974L1276.04767578125,344.56875905469536L1277.8474609375,343.34720953151873L1279.64724609375,328.15633506682684L1281.44703125,318.96639787618614L1283.24681640625,326.0630883661765L1285.0466015625,335.42944644021145L1286.84638671875,333.8297267086932L1288.646171875,323.6333901958244L1290.44595703125,326.65782732227905L1292.2457421875,323.42070520198024L1294.04552734375,319.8007731930952L1295.8453125,327.2800200639093L1297.64509765625,328.58190639364267L1299.4448828125,325.1594872566912L1301.24466796875,323.21913207130746L1303.044453125,314.38297672603807L1304.84423828125,322.9171874018566L1306.6440234375,325.0594139511619L1308.44380859375,336.4294880160829L1310.24359375,344.7406823831284L1312.04337890625,358.6057616589954L1313.8431640625,358.1218590807015" style="fill: none;" fill="none"></path></g></g></g></g><g opacity="0.2"><g><g><g><path stroke="rgb(255, 112, 67)" stroke-width="2px" d="M190.7772265625,-39.06662482023248L192.57701171875001,44.48598903417579L194.37679687500003,-7.775600731372917L197.97636718750002,-21.300529122352685L199.77615234375003,11.875470697879708L201.5759375,-18.52008599042901L205.17550781249997,-58.43501168489465L206.97529296874998,21.866055548190985L208.775078125,-17.247780740261163L210.57486328124997,34.73112446069709L212.37464843749999,-28.27495056390771L215.97421875,-11.404209911823356L217.77400390625,36.710365831851874L219.5737890625,39.3965433239936L221.37357421875,14.420305907726204L223.173359375,31.903604686260138L224.97314453125,5.183733820915139L226.7729296875,-0.8482559323311689L228.57271484375,42.27113974094382L230.3725,34.1184539794921L232.17228515625,-32.56341922283181L233.9720703125,-4.194180548191154L235.77185546875,58.19933634996406L237.57164062500001,-4.901004314422691L239.37142578125003,43.77916526794425L241.1712109375,56.5499685406684L242.97099609375002,-19.462630033493127L244.77078125000003,38.642530560493384L246.57056640625,21.394727349281226L248.3703515625,31.33812320232383L250.17013671874997,45.287078440189276L251.96992187499998,3.0631501674651265L253.76970703125,37.65290987491599L255.56949218749997,15.080053031444466L257.36927734375,24.693462967872534L259.1690625,91.13972824811927L260.96884765625,37.18158167600623L262.7686328125,40.9516454935073L264.56841796875,3.6757082939147114L266.368203125,77.2378496527671L268.16798828125,23.27970308065406L269.9677734375,7.210164189338601L271.76755859375,59.236146032810126L273.56734375,41.28151905536643L275.36712890625,48.727268695831214L277.1669140625,79.92402714490882L278.96669921875,81.43205267190925L280.766484375,59.141880393028174L282.56626953125,15.457003235816872L284.3660546875,24.97625988721839L286.16583984375,28.887665987014685L287.965625,81.47912931442252L289.76541015625,103.58077031373973L291.5651953125,78.36892497539512L293.36498046875,88.359397470951L295.164765625,70.49903613328925L296.96455078125,25.353210091590796L298.7643359375,54.42938488721839L300.56412109375,11.875470697879708L302.36390625,73.23229026794425L304.16369140625,96.84184443950649L305.9634765625,67.2944537997245L307.76326171875,110.93225431442256L309.563046875,40.24470937252036L311.36283203125,42.64808994531623L313.1626171875,86.85137194395057L314.96240234375,53.06270164251319L316.7621875,-7.398650527000511L318.56197265625,75.11726599931708L320.3617578125,42.930886864662085L322.16154296875,81.80900287628165L323.961328125,105.65427732467647L325.76111328125,101.41299766302105L327.5608984375,65.78654062747947L329.36068359375,73.27936691045753L331.16046875,44.81586259603492L332.96025390625,58.340790987014685L334.7600390625,52.82709372043601L336.55982421875,64.13717281818381L338.359609375,48.44447177648536L340.15939453125,42.83662122488013L341.9591796875,55.70180249214164L343.75896484375,38.972404122352515L345.55875,61.498071968555365L347.35853515625,42.27113974094382L349.1583203125,65.07960450649253L350.95810546875,72.66669642925254L352.757890625,102.49688398838039L354.55767578125,97.5958572030067L356.3574609375,68.04846656322471L358.15724609375,64.60838866233817L359.95703125,85.626143336296L361.75681640625,52.35587787628165L363.5566015625,79.73549586534492L365.35638671874995,58.95334911346427L367.156171875,54.00524568557731L368.95595703124997,66.91750359535209L370.7557421875,109.84836798906322L372.55552734375,62.95902085304252L374.3553125,50.98919463157645L376.15509765624995,94.2028559446334L377.9548828125,57.7281205058097L379.75466796874997,68.75540268421165L381.554453125,83.55263632535926L383.35423828125,122.61928361654277L385.15402343750003,75.6827474832534L386.95380859375,103.0623654723167L388.75359375000005,89.67889171838752L390.55337890625,75.91835540533057L392.3531640625,69.65075773000709L394.15294921875,49.057142257690344L395.95273437500003,53.015624999999915L397.75251953125,14.702990472316658L399.55230468750005,77.52064657211295L401.35208984375,57.11545002460471L403.151875,32.374820530414496L404.95166015625,48.491660773754035L406.7514453125,69.08527624607078L408.55123046875,66.06922519206992L410.35101562499995,147.78399613499639L412.15080078125,105.27721476554866L413.95058593749997,116.21023130416866L415.75037109375,65.83361726999274L417.55015625,50.65932106971732L419.34994140625,109.51849442720409L421.14972656249995,81.14925575256339L422.94951171875,147.83112895488736L424.74929687499997,115.78609210252758L426.54908203125,102.49688398838039L428.3488671875,116.44583922624584L430.14865234375003,82.61009228229514L431.9484375,118.33092731237407L433.74822265625005,95.23966562747951L435.5480078125,38.501075923442755L437.34779296875,121.62966293096538L439.147578125,109.56557106971736L440.94736328125003,120.87565016746517L442.7471484375,98.67974352836605L444.54693359375005,77.33211529254905L446.34671875,63.14755213260642L448.14650390625,68.94382160902015L449.9462890625,141.7048735618591L451.74607421875,96.70050215721126L453.545859375,83.83532088994971L455.34564453124995,78.27465933561317L457.1454296875,46.51241940259925L458.94521484374997,90.76277804374686L460.745,138.92454278469083L462.54478515625,111.02651995420452L464.3445703125,97.69012284278865L466.14435546874995,86.89844858646384L467.944140625,101.8842135071754L469.74392578124997,99.57509857416149L471.5437109375,114.13672429323192L473.34349609375,88.9248789548873L475.14328125000003,105.41866940259929L476.94306640625,116.63437050580974L478.74285156250005,85.95601689815513L480.54263671875,100.23484569787975L482.342421875,123.23184174299236L484.14220703125,93.96724802255622L485.94199218750003,110.36677283048625L487.74177734375,115.9275467395782L489.54156250000005,96.2292863130569L491.34134765625,66.1164141893386L493.1411328125,78.69879853725425L494.94091796875,100.09350341558452L496.740703125,133.41084551811215L498.54048828125,93.63737446069709L500.34027343749995,128.0386028885841L502.14005859375,168.89601644873616L503.93984374999997,71.01732861995688L505.73962890625,67.8600476384162L507.5394140625,79.1700143814086L509.33919921875,83.83532088994971L511.13898437499995,133.03389531373975L512.93876953125,82.51582664251319L514.7385546875,140.62098723649976L516.53833984375,64.7497309446334L518.338125,121.29978936910625L520.13791015625,64.08998382091514L521.9376953125,116.06888902187343L523.73748046875,119.79176384210582L525.537265625,79.26428002119056L527.33705078125,100.98885846137996L529.1368359375,100.65898489952083L530.93662109375,87.60538470745078L532.73640625,88.83061331510535L534.53619140625,122.14795541763301L536.3359765625,106.21975880861278L538.13576171875,109.14154422283168L539.935546875,135.295821249485L541.73533203125,97.2189069986343L543.5351171875,126.48350071907039L545.33490234375,125.3053487539291L547.1346875,120.40432196855541L548.93447265625,115.97462338209148L550.7342578125,84.11811780929557L552.53404296875,131.0074649453163L554.333828125,113.90111637115474L556.13361328125,120.96991580724712L557.9333984375,123.27903074026104L559.73318359375,216.77498427033422L561.53296875,249.19702750444412L563.33275390625,238.8766252696514L565.1325390625,230.77112850546834L566.93232421875,278.1317476630211L568.732109375,225.54022815823552L570.53189453125,215.36122438311574L572.3316796875,193.16537392139432L574.13146484375,206.97298687696454L575.93125,231.90214765071866L577.73103515625,229.92285010218617L579.5308203125,215.97389486432073L581.33060546875,256.0772394835949L583.130390625,221.25187185406682L584.93017578125,246.5108500123024L586.7299609375,210.50738659501073L588.52974609375,214.89000853896138L590.32953125,259.1875L592.12931640625,229.45163425803182L593.9291015625,218.754225641489L595.72888671875,234.68247842788693L597.528671875,229.2631029784679L599.32845703125,230.72399568557736L601.1282421875,224.45639801025388L602.92802734375,231.85501483082768L604.7278125,247.92460989952087L606.52759765625,229.2631029784679L608.3273828125,227.37812724709508L610.12716796875,264.55974262952805L611.926953125,224.17360109090802L613.72673828125,204.09839046001431L615.5265234375,210.27172249555585L617.32630859375,224.07939162850377L619.12609375,232.37336349487302L620.92587890625,224.9747466742992L622.7256640625,210.22464585304257L624.52544921875,211.82688084244725L626.325234375,237.1329918205738L628.12501953125,243.9661271572113L629.9248046875,232.2320212125778L631.72458984375,230.72399568557736L633.524375,241.93975296616554L635.32416015625,212.62802642583844L637.1239453125,246.08676698803902L638.92373046875,255.84163156151772L640.723515625,214.41873651742932L642.52330078125,215.07848364114759L644.3230859375,291.70375269651413L646.12287109375,210.5545194149017L647.92265625,247.0763876736164L649.72244140625,215.4554900228977L651.5222265625,238.02840304374695L653.32201171875,218.9427569210529L655.121796875,217.29338911175725L656.92158203125,182.13814792037007L658.7213671875,214.41873651742932L660.52115234375,269.6963773369789L662.3209375,238.16974532604218L664.12072265625,212.43949514627454L665.9205078125,253.20264306664467L667.72029296875,181.94961664080617L669.520078125,266.7746481001377L671.31986328125,237.3215231001377L673.1196484375,240.4788602590561L674.91943359375,217.81173777580258L676.71921875,233.08024343848226L678.51900390625,241.70414504408836L680.3187890625,266.2562432587147L682.11857421875,242.12822806835175L683.918359375,220.63925755023953L685.71814453125,263.14598274230957L687.5179296875,269.97911807894707L689.31771484375,208.9993610680103L691.1175,260.3656519651413L692.91728515625,236.70885261893272L694.7170703125,261.40234929323196L696.51685546875,256.78411942720413L698.316640625,244.01325997710228L700.11642578125,248.49014756083488L701.9162109375,227.8964759111404L703.71599609375,225.49315151572225L705.51578125,250.09238255023956L707.31556640625,243.07077211141586L709.1153515625,201.2237378656864L710.91513671875,254.66347959637642L712.714921875,256.6427771449089L714.51470703125,252.63710540533066L716.3144921875,227.47239288687703L718.11427734375,248.53722420334816L719.9140625,176.71877247095105L721.71384765625,232.75036987662313L723.5136328125,240.43172743916512L725.3134179687501,249.0556290447712L727.113203125,231.0538692474365L728.91298828125,240.80873382091522L730.7127734374999,215.97389486432073L732.5125585937501,258.9990248978138L734.31234375,229.73437499999997L736.11212890625,206.36037257313725L737.9119140624999,201.27087068557736L739.71169921875,224.5977402925491L741.511484375,208.15113884210584L743.31126953125,233.08024343848226L745.1110546875,219.9323776066303L746.9108398437501,282.9856416285038L748.710625,260.41272860765457L750.51041015625,221.20473903417584L752.3101953124999,254.23939657211304L754.1099804687501,212.3452295064926L755.909765625,204.80527040362355L757.70955078125,179.02788740396497L759.5093359374999,207.8212652802467L761.30912109375,238.3111437857151L763.10890625,241.32713866233826L764.90869140625,207.39712607860562L766.7084765625,229.02749505639073L768.50826171875,222.2414925396442L770.3080468750001,239.44210675358772L772.10783203125,222.14722689986226L773.9076171875,256.3128474056721L775.7074023437499,202.68463057279584L777.5071875000001,198.2548758089542L779.30697265625,220.45072627067563L781.1067578125,243.91899433732033L782.9065429687499,287.0855228304863L784.706328125,237.08585900068283L786.50611328125,242.45810163021088L788.3058984375,279.59264037013054L790.10568359375,224.83334821462628L791.9054687500001,216.49224352836606L793.70525390625,220.63925755023953L795.5050390625,228.03787437081334L797.3048242187499,226.953988045454L799.1046093750001,227.09538650512692L800.90439453125,259.8001143038273L802.7041796875,223.93799316883084L804.5039648437499,200.37551563978192L806.30375,211.9211464822292L808.10353515625,269.9319852590561L809.9033203125,233.12737625837323L811.70310546875,245.80402624607086L813.502890625,239.39497393369675L815.3026757812501,209.75337383151052L817.1024609375,228.46201357245442L818.90224609375,241.18574020266533L820.7020312499999,236.99164953827858L822.5018164062501,245.42701986432076L824.3016015625,240.80873382091522L826.10138671875,274.5973479449749L827.9011718749999,280.77073615789413L829.70095703125,247.5005268752575L831.5007421875,244.06039279699326L833.30052734375,257.11399298906326L835.1003125,251.08200323581696L836.9000976562501,218.3772754371166L838.6998828125,210.1775130331516L840.49966796875,264.55974262952805L842.2994531249999,197.500863045454L844.0992382812501,217.3875985741615L845.8990234375,237.08585900068283L847.69880859375,203.29724487662313L849.4985937499999,239.01802372932434L851.29837890625,241.0443979203701L853.0981640625,274.8330120444298L854.89794921875,175.6348861455917L856.697734375,261.1667413711548L858.49751953125,184.91847869753835L860.2973046875001,257.34960091114044L862.09708984375,238.4996188879013L863.896875,177.47272905707356L865.6966601562499,239.63063803315163L867.4964453125001,245.56836214661598L869.29623046875,207.0672525167465L871.096015625,265.54936331510544L872.8958007812499,243.54198795557022L874.6955859375,250.84639531373978L876.49537109375,235.10661762952802L878.29515625,191.51600611209867L880.09494140625,220.3093839883804L881.8947265625001,245.7097606062889L883.69451171875,205.18227678537366L885.494296875,260.6012598872185L887.2940820312499,196.27563443779943L889.0938671875001,168.09487086534497L890.89365234375,276.7179877758026L892.6934375,234.9652753472328L894.4932226562499,252.44863030314445L896.2930078125,242.5995000898838L898.09279296875,169.88563713431355L899.892578125,255.60602363944054L901.69236328125,248.30161628127098L903.4921484375,248.39588192105293L905.2919335937501,237.83987176418304L907.09171875,224.55060747265813L908.89150390625,274.12613210082054L910.6912890624999,226.90685522556302L912.4910742187501,247.59473633766174L914.290859375,231.2424005270004L916.09064453125,274.8330120444298L917.8904296874999,252.82563668489456L919.69021484375,262.0621525943279L921.49,223.6552524268627L923.28978515625,226.24710810184476L925.0895703125,244.7672727406025L926.8893554687501,246.22810927033424L928.689140625,245.1442229449749L930.48892578125,232.75036987662313L932.2887109374999,250.09238255023956L934.0884960937501,234.91814252734181L935.88828125,259.47024074196815L937.68806640625,310.8364754617214L939.4878515624999,320.2615226507187L941.28763671875,350.93987625837326L943.087421875,326.6233859658241L944.88720703125,344.6722224056721L946.6869921875,320.35573211312294L948.48677734375,355.3224982023239L950.2865625000001,341.9390244483948L952.08634765625,378.4137598872185L953.8861328125,343.91826581954956L955.6859179687499,325.82224038243294L957.4857031250001,303.0608522593975L959.28548828125,356.83052372932434L961.0852734375,319.2719019651413L962.8850585937499,362.9567229449749L964.68484375,316.86852139234543L966.48462890625,320.4028649330139L968.2844140625,339.86551743745804L970.08419921875,338.82876393198967L971.8839843750001,324.22000539302826L973.68376953125,311.3077474832535L975.4835546875,340.9493475854397L977.2833398437499,330.7703999876976L979.0831250000001,346.7928622364998L980.88291015625,338.68736547231674L982.6826953125,332.3726349771023L984.4824804687499,353.3432568311691L986.282265625,313.71112805604935L988.08205078125,314.7478815615177L989.8818359375,331.47722375392914L991.68162109375,313.4283873140812L993.48140625,357.01899883151054L995.2811914062501,361.07174721360207L997.0809765625,312.90998247265816L998.88076171875,356.3592517077923L1000.6805468749999,331.66575503349304L1002.4803320312501,309.941120415926L1004.2801171875,308.9043669104576L1006.07990234375,340.7608724832535L1007.8796874999999,319.2719019651413L1009.67947265625,320.2143898308277L1011.4792578125,267.387262403965L1013.27904296875,325.58663246035576L1015.078828125,329.6393808424473L1016.8786132812501,311.8732289671898L1018.6783984375,325.6808981001377L1020.47818359375,333.22085720300674L1022.2779687499999,319.2247691452503L1024.07775390625,310.5066018998623L1025.8775390625,347.594007819891L1027.67732421875,323.46599262952805L1029.477109375,317.24552777409554L1031.27689453125,319.6017755270004L1033.0766796875,348.25375494360924L1034.87646484375,314.3708751797676L1036.67625,300.84600296616554L1038.47603515625,312.4858994483948L1040.2758203125,310.5066018998623L1042.07560546875,340.00685971975327L1043.875390625,327.9900130331516L1045.67517578125,335.34149703383446L1047.4749609375,326.0578483045101L1049.27474609375,342.8815123140812L1051.07453125,319.55464270710945L1052.87431640625,313.8053936958313L1054.6741015625,330.9588750898838L1056.47388671875,316.39724937081337L1058.273671875,308.66875898838043L1060.07345703125,331.9956285953522L1061.8732421875,370.0255223810673L1063.67302734375,301.03447806835175L1065.4728125,349.00776770710945L1067.27259765625,351.0812747180462L1069.0723828125,355.746637403965L1070.87216796875,344.95501932501793L1072.671953125,336.9908648431301L1074.47173828125,287.79240277409554L1076.2715234375,358.1028851568699L1078.07130859375,321.8166248202324L1079.87109375,321.2040105164051L1081.67087890625,340.9022709429264L1083.4706640625,326.76472824811935L1085.27044921875,337.9333527088165L1087.070234375,323.7016005516052L1088.87001953125,336.660991281271L1090.6698046875,338.82876393198967L1092.46958984375,361.7786271572113L1094.269375,311.2134818434715L1096.06916015625,321.0626120567322L1097.8689453125,297.54726734757423L1099.66873046875,318.2351484596729L1101.468515625,344.3894816637039L1103.26830078125,336.94373202323914L1105.0680859375,329.54511520266533L1106.86787109375,349.1019771695137L1108.66765625,338.07475116848946L1110.46744140625,343.6355250775814L1112.2672265625,342.17463237047195L1114.06701171875,331.05314072966576L1115.866796875,300.46899658441544L1117.66658203125,320.827004134655L1119.4663671875,314.70074874162674L1121.26615234375,321.5810168981552L1123.0659375,296.69898894429207L1124.86572265625,342.36310747265816L1126.6655078125,325.1624932587147L1128.46529296875,350.98700907826424L1130.265078125,313.8525265157223L1132.06486328125,323.513125449419L1133.8646484375,280.2523874938488L1135.66443359375,324.5027461349964L1137.46421875,362.7211150228977L1139.26400390625,329.6393808424473L1141.0637890625,349.1491099894047L1142.86357421875,320.92126977443695L1144.663359375,339.81838461756706L1146.46314453125,338.12188398838043L1148.2629296875,359.0453730225563L1150.06271484375,314.1824000775814L1151.8625,339.5356438755989L1153.66228515625,329.2152416408062L1155.4620703125,336.75525692105293L1157.26185546875,321.2511433362961L1159.061640625,334.54035145044327L1160.86142578125,363.380862146616L1162.6612109375,309.7055124938488L1164.46099609375,315.26623022556305L1166.26078125,365.6899770796299L1168.06056640625,330.9588750898838L1169.8603515625,307.82048058509827L1171.66013671875,338.31035909056664L1173.459921875,286.37864288687706L1175.25970703125,329.12097600102425L1177.0594921875,324.8797525167465L1178.85927734375,302.4482379555702L1180.6590625,329.4508495628834L1182.45884765625,356.40638452768326L1184.2586328125,315.26623022556305L1186.05841796875,348.39509722590446L1187.858203125,306.5952519774437L1189.65798828125,338.49889037013054L1191.4577734375,329.4037729203701L1193.25755859375,319.0833706855774L1195.05734375,272.33536583185196L1196.85712890625,335.15302193164825L1198.6569140625,343.4941266179085L1200.45669921875,337.179396122694L1202.256484375,341.8918916285038L1204.05626953125,291.5623542368412L1205.8560546875,325.20962607860565L1207.65583984375,347.02852633595467L1209.455625,328.69689297676086L1211.25541015625,358.52702435851097L1213.0551953125,349.24337562918663L1214.85498046875,320.49713057279587L1216.654765625,342.17463237047195L1218.45455078125,309.846854776144L1220.2543359375,325.2567588984966L1222.05412109375,320.4499977529049L1223.85390625,309.7055124938488L1225.65369140625,300.5632622241974L1227.4534765625,364.84175485372543L1229.25326171875,339.9597268998623L1231.053046875,286.0959021449089L1232.85283203125,342.36310747265816L1234.6526171875,290.9497399330139L1236.45240234375,335.95411133766174L1238.2521875,359.89365142583847L1240.05197265625,311.4491459429264L1241.8517578125,392.73977768421173L1243.65154296875,324.5027461349964L1245.451328125,336.0012441575527L1247.25111328125,308.2917526066303L1249.0508984375,310.41239243745804L1250.85068359375,336.75525692105293L1252.65046875,289.48884722590446L1254.45025390625,317.7167436182499L1256.2500390625,323.8901318311691L1258.04982421875,334.6817499101162L1259.849609375,359.7993857860565L1261.64939453125,307.9618790447712L1263.4491796875,325.5394996404648L1265.24896484375,354.3800103366375L1267.04875,322.3349734842777L1268.84853515625,329.54511520266533L1270.6483203125,373.0886500775814L1272.44810546875,333.927737146616L1274.247890625,328.55549451708794L1276.04767578125,356.3592517077923L1277.8474609375,341.5148852467537L1279.64724609375,305.3700233697891L1281.44703125,305.1814920902252L1283.24681640625,336.70812410116196L1285.0466015625,349.4789835512638L1286.84638671875,331.43014711141586L1288.646171875,308.3388854265213L1290.44595703125,331.194483011961L1292.2457421875,318.56502202153206L1294.04552734375,314.3708751797676L1295.8453125,338.49889037013054L1297.64509765625,330.5347358882427L1299.4448828125,320.0258585512638L1301.24466796875,320.30859929323196L1303.044453125,301.1287437081337L1304.84423828125,335.71850341558456L1306.6440234375,328.2727537751198L1308.44380859375,353.48459911346436L1310.24359375,357.20747393369675L1312.04337890625,379.40338057279587L1313.8431640625,357.39600521326065" style="fill: none;" fill="none"></path></g></g></g></g></g></g><g transform="translate(41, 377)" clip-path="url(#clip_1)"><clipPath id="clip_1"><rect width="1439" height="23"></rect></clipPath><g><g><line x1="0" y1="0" x2="0" y2="5" style="visibility: inherit;" fill="rgb(0, 0, 0)" stroke="rgb(204, 204, 204)" stroke-width="1px"></line><line x1="179.978515625" y1="0" x2="179.978515625" y2="5" style="visibility: inherit;" fill="rgb(0, 0, 0)" stroke="rgb(204, 204, 204)" stroke-width="1px"></line><line x1="359.95703125" y1="0" x2="359.95703125" y2="5" style="visibility: inherit;" fill="rgb(0, 0, 0)" stroke="rgb(204, 204, 204)" stroke-width="1px"></line><line x1="539.935546875" y1="0" x2="539.935546875" y2="5" style="visibility: inherit;" fill="rgb(0, 0, 0)" stroke="rgb(204, 204, 204)" stroke-width="1px"></line><line x1="719.9140625" y1="0" x2="719.9140625" y2="5" style="visibility: inherit;" fill="rgb(0, 0, 0)" stroke="rgb(204, 204, 204)" stroke-width="1px"></line><line x1="899.892578125" y1="0" x2="899.892578125" y2="5" style="visibility: inherit;" fill="rgb(0, 0, 0)" stroke="rgb(204, 204, 204)" stroke-width="1px"></line><line x1="1079.87109375" y1="0" x2="1079.87109375" y2="5" style="visibility: inherit;" fill="rgb(0, 0, 0)" stroke="rgb(204, 204, 204)" stroke-width="1px"></line><line x1="1259.849609375" y1="0" x2="1259.849609375" y2="5" style="visibility: inherit;" fill="rgb(0, 0, 0)" stroke="rgb(204, 204, 204)" stroke-width="1px"></line><line x1="1439.828125" y1="0" x2="1439.828125" y2="5" style="visibility: inherit;" fill="rgb(0, 0, 0)" stroke="rgb(204, 204, 204)" stroke-width="1px"></line></g><g transform="translate(0, 8)"><text x="0" y="0" dx="0em" dy="0.95em" style="text-anchor: middle; visibility: hidden; font-family: Roboto, sans-serif; font-size: 12px; font-weight: 200;" fill="rgb(33, 33, 33)" stroke="none" stroke-width="1px">-5k</text><text x="179.978515625" y="0" dx="0em" dy="0.95em" style="text-anchor: middle; visibility: inherit; font-family: Roboto, sans-serif; font-size: 12px; font-weight: 200;" fill="rgb(33, 33, 33)" stroke="none" stroke-width="1px">0</text><text x="359.95703125" y="0" dx="0em" dy="0.95em" style="text-anchor: middle; visibility: inherit; font-family: Roboto, sans-serif; font-size: 12px; font-weight: 200;" fill="rgb(33, 33, 33)" stroke="none" stroke-width="1px">5k</text><text x="539.935546875" y="0" dx="0em" dy="0.95em" style="text-anchor: middle; visibility: inherit; font-family: Roboto, sans-serif; font-size: 12px; font-weight: 200;" fill="rgb(33, 33, 33)" stroke="none" stroke-width="1px">10k</text><text x="719.9140625" y="0" dx="0em" dy="0.95em" style="text-anchor: middle; visibility: inherit; font-family: Roboto, sans-serif; font-size: 12px; font-weight: 200;" fill="rgb(33, 33, 33)" stroke="none" stroke-width="1px">15k</text><text x="899.892578125" y="0" dx="0em" dy="0.95em" style="text-anchor: middle; visibility: inherit; font-family: Roboto, sans-serif; font-size: 12px; font-weight: 200;" fill="rgb(33, 33, 33)" stroke="none" stroke-width="1px">20k</text><text x="1079.87109375" y="0" dx="0em" dy="0.95em" style="text-anchor: middle; visibility: inherit; font-family: Roboto, sans-serif; font-size: 12px; font-weight: 200;" fill="rgb(33, 33, 33)" stroke="none" stroke-width="1px">25k</text><text x="1259.849609375" y="0" dx="0em" dy="0.95em" style="text-anchor: middle; visibility: inherit; font-family: Roboto, sans-serif; font-size: 12px; font-weight: 200;" fill="rgb(33, 33, 33)" stroke="none" stroke-width="1px">30k</text><text x="1439.828125" y="0" dx="0em" dy="0.95em" style="text-anchor: middle; visibility: hidden; font-family: Roboto, sans-serif; font-size: 12px; font-weight: 200;" fill="rgb(33, 33, 33)" stroke="none" stroke-width="1px">35k</text></g><line x1="0" y1="0" x2="1439.828125" y2="0" fill="rgb(0, 0, 0)" stroke="rgb(204, 204, 204)" stroke-width="1px"></line></g></g></g></g></svg>